<?xml version="1.0" encoding="UTF-8" standalone="no"?>
<svg
   xmlns:dc="http://purl.org/dc/elements/1.1/"
   xmlns:cc="http://creativecommons.org/ns#"
   xmlns:rdf="http://www.w3.org/1999/02/22-rdf-syntax-ns#"
   xmlns:svg="http://www.w3.org/2000/svg"
   xmlns="http://www.w3.org/2000/svg"
   xmlns:sodipodi="http://sodipodi.sourceforge.net/DTD/sodipodi-0.dtd"
   xmlns:inkscape="http://www.inkscape.org/namespaces/inkscape"
   width="210mm"
   height="297mm"
   viewBox="0 0 210 297"
   version="1.1"
   id="svg8"
   inkscape:version="1.0.1 (3bc2e813f5, 2020-09-07)"
   sodipodi:docname="mo_logo_black.svg">
  <defs
     id="defs2" />
  <sodipodi:namedview
     id="base"
     pagecolor="#ffffff"
     bordercolor="#666666"
     borderopacity="1.0"
     inkscape:pageopacity="0.0"
     inkscape:pageshadow="2"
     inkscape:zoom="0.49497475"
     inkscape:cx="345.78955"
     inkscape:cy="429.1833"
     inkscape:document-units="mm"
     inkscape:current-layer="layer1"
     inkscape:document-rotation="0"
     showgrid="false"
     inkscape:window-width="1431"
     inkscape:window-height="977"
     inkscape:window-x="32"
     inkscape:window-y="32"
     inkscape:window-maximized="0" />
  <metadata
     id="metadata5">
    <rdf:RDF>
      <cc:Work
         rdf:about="">
        <dc:format>image/svg+xml</dc:format>
        <dc:type
           rdf:resource="http://purl.org/dc/dcmitype/StillImage" />
        <dc:title />
      </cc:Work>
    </rdf:RDF>
  </metadata>
  <g
     inkscape:label="Layer 1"
     inkscape:groupmode="layer"
     id="layer1">
    <path
       style="fill:#000000;fill-opacity:1;fill-rule:nonzero;stroke:none;stroke-width:2.4622"
       id="path14"
       d="m -76.962031,251.42863 c 5.872588,0.8242 11.760044,1.05519 17.64713,1.1574 5.910401,-0.16011 11.814552,-0.84816 17.646369,-2.65125 8.69305,-3.11958 16.650374,-10.84158 24.688841,-17.39104 4.441028,-3.94113 8.0955686,-10.09631 11.7648414,-16.0254 4.75253628,-7.4889 8.7890267,-16.2187 12.3327075,-25.66525 3.4375881,-8.75758 6.7722201,-17.6358 10.2662801,-26.32254 2.497891,-5.97153 4.482573,-12.52025 6.468887,-19.08054 1.818879,-6.26665 3.466126,-12.69004 5.029098,-19.18431 1.54429,-6.26523 2.51133,-12.8902 3.457376,-19.51777 1.490751,-9.617566 4.049319,-5.91194 -12.557773,7.05455 -0.10011,0.0758 -0.208505,3.70073 -0.28667,4.98082 -0.379438,6.03634 -0.819278,12.05948 -1.232381,18.0886 -0.997064,7.74165 -1.638561,15.61007 -2.341085,23.45473 -0.637018,7.65092 -1.16238,15.31133 -2.105574,22.85686 -0.68395,5.98807 -1.313675,11.98066 -2.128706,17.91219 -0.839902,5.56687 -1.341091,11.26491 -1.8168919,16.96561 -0.1903356,4.75744 -1.0457472,9.24208 -1.6472778,13.84228 -0.9284155,4.72128 -1.5386318,9.60508 -2.0857629,14.51404 -0.5150921,4.72986 -1.0880003,7.49831 1.378178,10.444 2.3197066,1.59562 4.7354726,0.54777 6.9981476,-0.85318 5.336585,-3.32899 10.377803,-7.79053 15.564227,-11.99441 0.931617,-0.75604 1.828868,-1.81029 2.581684,-3.04778 1.757353,-2.67098 3.461582,-5.54684 5.063844,-8.54293 2.456583,-4.09659 4.529891,-7.98072 6.479674,-12.94683 3.026401,-7.62489 5.81101,-15.61712 8.243799,-23.93065 2.790155,-9.39595 5.183246,-19.15552 7.299495,-29.12221 1.867742,-8.08777 3.702218,-16.18423 5.440361,-24.36967 1.421081,-6.48635 2.329868,-13.27005 3.080351,-20.10776 0.413796,-3.59925 0.594209,-7.26966 0.952061,-10.88515 0.01347,-0.0758 0.0744,-0.27113 0.02748,-0.23966 -15.158691,11.65809 -12.459271,2.79779 -12.852013,18.91497 -0.306431,8.73332 -0.881351,17.42756 -1.489619,26.10459 -0.531207,7.73482 -1.102845,15.45998 -1.692374,23.18045 -0.429674,5.97809 -0.818276,11.96603 -1.241112,17.94577 -0.366742,5.17422 -0.747111,10.34521 -1.12748,15.51627 -0.401136,4.46522 -0.593725,8.93391 -0.621546,13.4527 0.184017,4.41445 0.374248,8.72058 1.383011,12.77924 1.065743,4.47235 3.030417,7.22305 5.387206,9.15097 2.041994,1.50358 4.162822,2.17943 6.351955,1.97185 7.410834,-2.69758 14.096306,-9.47977 19.838945,-18.10392 2.438048,-4.10674 4.565923,-8.76945 6.841414,-13.16898 2.98781,-5.72136 5.14843,-12.67031 7.325036,-19.46515 2.728698,-8.22034 4.789338,-17.06366 6.781968,-25.94073 1.84055,-7.86309 3.74346,-15.66599 5.65535,-23.4714 1.81738,-6.52003 3.4383,-13.15937 4.53935,-20.20623 0.9198,-7.07882 1.56306,-14.25961 2.14841,-21.45273 0.068,-0.8532 0.1326,-1.70592 0.19877,-2.55873 0.068,-0.85318 0.1773,-2.15145 0.27506,-3.06458 0.0135,-0.15161 0.13396,-0.50741 0.0611,-0.45185 -13.19609,9.2391 -12.49484,1.00464 -13.04008,11.04921 -0.33059,5.553 -0.72301,11.09275 -1.07841,16.64058 -0.17937,6.9534 -1.36898,13.46863 -2.42422,20.07827 -1.145551,6.39526 -2.510673,12.6226 -3.470015,19.12522 -0.867005,6.28055 -1.408494,12.70418 -1.883048,19.12011 -0.763253,6.69776 -1.494094,13.407 -2.176182,20.13478 -0.534654,5.33354 -0.899318,10.71299 -1.279377,16.08815 -0.517502,5.32608 -0.132773,10.70214 0.466757,15.93836 0.563599,4.47429 2.128178,7.84506 4.061766,10.57786 2.16034,2.75168 4.650139,2.66597 7.119479,1.73892 10.67237,-5.24251 14.56432,-8.0515 20.10504,-21.39505 3.05139,-9.55588 5.38848,-19.8491 7.62839,-30.12019 2.50894,-10.2075 4.23376,-20.89461 5.55793,-31.79981 1.18415,-10.54185 1.92374,-21.22678 2.73932,-31.87947 0.38294,-7.19683 1.26003,-14.319 1.42936,-21.54839 -0.0406,-5.62884 -0.94409,-10.89562 -2.11881,-16.020367 -0.96162,-3.84261 -2.07812,-7.596804 -3.85736,-10.338902 -2.0491,-2.304021 -4.4962,-2.819598 -6.82825,-3.459532 -6.25697,-1.991496 -13.83549,0.422839 -17.89784,10.825042 -0.98856,3.113222 -1.87511,6.616639 -1.48015,10.266099 0.23453,0.49727 0.39928,1.14478 0.70259,1.49249 1.36953,1.56666 5.30519,-1.12331 6.71103,-1.90659 2.51071,-1.63204 5.05165,-3.06962 7.58424,-4.57611 2.61484,-1.69519 5.38568,-2.384438 8.13988,-2.733297 2.93137,0.03665 5.82062,-0.874656 8.74053,-1.185159 3.54314,-0.154042 7.0759,0.504859 10.59133,1.238188 2.69552,0.545238 5.38232,1.139698 8.02928,2.234188 2.6563,1.17634 5.10977,3.37561 7.54549,5.58537 2.14587,1.79792 4.1997,3.94667 6.25348,6.07349 2.45877,2.76433 5.09299,4.92104 7.62361,7.44265 2.28582,2.58829 4.74425,4.38087 7.32866,5.63837 2.55038,0.94908 5.12516,1.76456 7.72061,2.13993 2.46248,0.2664 4.88689,-0.10089 7.26389,-1.30152 1.3057,-0.79386 2.56479,-1.81127 3.84411,-2.73402 0,0 11.52117,-12.97407 11.52117,-12.97407 v 0 c -1.28929,0.83171 -2.56742,1.71127 -3.78568,2.86195 -0.78571,0.46323 -1.54421,1.10692 -2.35062,1.42715 -1.52831,0.60832 -3.13782,0.4619 -4.68869,0.57298 -2.55044,0.0252 -5.07236,-0.98064 -7.58407,-1.70827 -2.5387,-1.01605 -4.98701,-2.47179 -7.22072,-4.98495 -2.48291,-2.6001 -5.11755,-4.65663 -7.53612,-7.46562 -2.04411,-2.262679 -4.18214,-4.32093 -6.33341,-6.205449 -2.51844,-2.235321 -4.99616,-4.64829 -7.70425,-6.048113 -2.67868,-1.252046 -5.36951,-2.057398 -8.13009,-2.481826 -3.55718,-0.709343 -7.11926,-1.409334 -10.69985,-1.538064 -2.93294,0.06331 -5.78963,1.094246 -8.71597,1.110653 -2.79537,0.17548 -5.59532,0.73459 -8.30209,2.065621 -1.16592,0.841816 -2.31397,1.388079 -3.51319,2.028368 -2.22795,1.190202 -0.38254,0.312945 -2.60508,1.817867 -0.49637,0.336919 -1.00991,0.584383 -1.51467,0.87593 -1.39085,0.877192 -2.81562,1.792332 -4.25291,2.386567 -0.38128,0.15667 -0.78694,0.113624 -1.15891,0.332058 -0.54105,0.321944 -0.57565,0.634837 -0.81043,1.34858 -0.21304,-2.878578 0.87485,-5.88523 1.86629,-7.916593 4.29489,-4.843579 0.97877,-1.00973 -11.13404,8.052509 -0.25162,0.18922 0.49285,-0.444225 0.7591,-0.546526 1.11053,-0.425269 2.22214,0.295659 3.32449,0.412778 2.172,0.536384 4.39415,0.98317 6.45546,2.4175 1.78358,2.07404 2.75064,5.65723 3.65746,9.05565 1.1129,4.76114 1.94215,9.71578 1.9082,14.96335 -0.23011,7.11137 -0.85831,14.16251 -1.28198,21.23952 -0.70862,10.58618 -1.49304,21.16938 -2.69298,31.6108 -1.3583,10.78767 -3.18859,21.28488 -5.61986,31.43138 -2.22585,10.14367 -4.53171,20.41058 -7.87064,29.50706 -1.3414,2.91309 -2.64931,5.80238 -4.38866,7.95747 -0.42343,0.52505 -1.80686,1.73406 -1.33096,1.39416 15.13369,-10.80918 14.62746,-10.44706 9.9653,-7.71568 -2.11858,1.31427 -4.44305,2.15929 -6.51988,0.15161 -1.80242,-2.11774 -3.17834,-4.94843 -3.67571,-8.87247 -0.6101,-4.97986 -0.86829,-10.02924 -0.3581,-15.09787 0.38438,-5.33102 0.79657,-10.65756 1.27548,-15.96255 0.63318,-6.77312 1.42051,-13.48376 2.15721,-20.21964 0.50062,-6.30639 0.98256,-12.63533 1.91403,-18.78862 1.02483,-6.45025 2.3985,-12.67751 3.47636,-19.09823 1.07827,-6.71088 2.10043,-13.41218 2.34425,-20.44265 0.41565,-5.58291 0.79782,-11.17491 1.25995,-16.74584 0.87843,-9.687121 0.45863,-2.16016 -12.66045,5.91828 -0.0135,0.0105 -0.0762,2.35335 -0.13767,3.32838 -0.0541,0.84178 -0.11481,1.68154 -0.17132,2.52233 -0.51279,7.07428 -1.08517,14.16189 -2.13789,21.04421 -1.19798,6.88985 -2.864798,13.3987 -4.576803,19.90269 -1.879241,7.79029 -3.745061,15.58635 -5.518824,23.46055 -1.994641,8.82989 -4.199814,17.4915 -6.927416,25.65067 -2.210039,6.68833 -4.438517,13.44705 -7.483248,18.99036 -2.249695,4.38741 -4.413532,8.96314 -6.928317,12.85376 -1.335147,1.90308 -2.671249,3.69381 -4.125839,5.28104 -0.444777,0.48467 -1.830124,1.74772 -1.347796,1.40717 3.467966,-2.44802 15.641106,-11.53778 10.318894,-7.73903 -2.025085,1.07787 -4.059949,0.38477 -6.044455,-0.73962 -2.154633,-1.38884 -4.021785,-3.37812 -4.923654,-7.46604 -0.941592,-3.68502 -1.040529,-7.68205 -1.216136,-11.69817 0.05011,-4.444 0.387334,-8.81284 0.70662,-13.21416 0.337218,-5.15191 0.675086,-10.30381 1.026239,-15.45255 0.41241,-5.98782 0.859973,-11.96781 1.262687,-17.95802 0.486703,-7.69533 0.99329,-15.38616 1.512715,-23.07419 0.570532,-8.79744 1.229465,-17.57962 1.658551,-26.40495 0.498125,-15.80141 1.08151,-10.07047 -12.707652,-1.63992 -0.116019,3.55961 -0.495596,7.07642 -0.798839,10.59197 -0.70253,6.68957 -1.634591,13.2846 -3.025344,19.61542 -1.71349,8.1438 -3.594889,16.15646 -5.324883,24.28788 -2.139372,9.90156 -4.57136,19.55132 -7.400587,28.85651 -2.506529,8.21282 -5.267694,16.19078 -8.405936,23.64142 -2.013847,4.60665 -4.333097,8.60116 -6.661267,12.66487 -1.66856,2.86266 -3.317547,5.80103 -5.179593,8.24047 -0.707115,0.75726 -4.508499,4.09962 -2.602654,2.70726 20.376816,-14.8867 13.582846,-10.1156 9.132164,-7.07498 -2.099572,1.25202 -4.16078,2.92623 -6.433651,2.49569 -0.298678,-0.15889 -0.807325,-0.30539 -1.050364,-0.79892 -0.596945,-1.21037 0.271299,-5.18784 0.284887,-6.56408 0.553651,-4.89595 1.289015,-9.68813 2.138998,-14.43806 0.654856,-4.61812 1.295982,-9.22984 1.524902,-14.0031 0.48284,-5.63177 1.068453,-11.23311 1.857802,-16.74966 0.811986,-5.94767 1.363885,-11.98582 2.093699,-17.96822 0.867364,-7.57026 1.274951,-15.26437 1.945463,-22.89772 0.692901,-7.92141 1.599782,-15.75207 2.454876,-23.61503 0.435709,-6.05382 0.853463,-12.11284 1.334677,-18.15517 0.105533,-1.33283 0.219298,-2.66362 0.315908,-3.99871 0.03367,-0.42912 0.308553,-1.40383 0.08224,-1.28859 -13.896276,7.07172 -12.046581,-0.16173 -13.075125,9.77962 -0.768379,6.51992 -1.860586,12.89457 -3.374283,18.96781 -1.626675,6.4094 -3.263529,12.81068 -5.108656,19.02066 -1.9544928,6.44807 -3.9976529,12.78689 -6.3980711,18.72046 -3.4382328,8.6973 -6.7070038,17.60585 -10.147412,26.29893 -3.6456817,9.23023 -7.6960109,17.85287 -12.4938219,25.14797 -3.699237,5.86366 -7.46323,11.73352 -11.976228,15.3896 -5.389145,4.5622 -2.087021,1.70377 8.149835,-5.94719 0.692389,-0.51744 -1.371048,1.09678 -2.067356,1.59636 -1.380853,0.99075 -2.776432,1.86325 -4.211497,2.54911 -0.706299,0.33692 -1.423965,0.58944 -2.135902,0.88477 -5.791821,2.21935 -11.72011,2.91286 -17.626253,3.16982 -5.747611,-0.0251 -11.504667,-0.11362 -17.226047,-1.24695 0,0 -11.902729,11.99191 -11.902729,11.99191 z" />
  </g>
</svg>
