<?xml version="1.0" encoding="UTF-8" standalone="no"?>
<svg
   xmlns:dc="http://purl.org/dc/elements/1.1/"
   xmlns:cc="http://creativecommons.org/ns#"
   xmlns:rdf="http://www.w3.org/1999/02/22-rdf-syntax-ns#"
   xmlns:svg="http://www.w3.org/2000/svg"
   xmlns="http://www.w3.org/2000/svg"
   xmlns:sodipodi="http://sodipodi.sourceforge.net/DTD/sodipodi-0.dtd"
   xmlns:inkscape="http://www.inkscape.org/namespaces/inkscape"
   width="210mm"
   height="297mm"
   viewBox="0 0 210 297"
   version="1.1"
   id="svg8"
   inkscape:version="1.0.1 (3bc2e813f5, 2020-09-07)"
   sodipodi:docname="mo_logo_black.svg">
  <defs
     id="defs2" />
  <sodipodi:namedview
     id="base"
     pagecolor="#ffffff"
     bordercolor="#666666"
     borderopacity="1.0"
     inkscape:pageopacity="0.0"
     inkscape:pageshadow="2"
     inkscape:zoom="0.49497475"
     inkscape:cx="345.78955"
     inkscape:cy="429.1833"
     inkscape:document-units="mm"
     inkscape:current-layer="layer1"
     inkscape:document-rotation="0"
     showgrid="false"
     inkscape:window-width="1431"
     inkscape:window-height="977"
     inkscape:window-x="32"
     inkscape:window-y="32"
     inkscape:window-maximized="0" />
  <metadata
     id="metadata5">
    <rdf:RDF>
      <cc:Work
         rdf:about="">
        <dc:format>image/svg+xml</dc:format>
        <dc:type
           rdf:resource="http://purl.org/dc/dcmitype/StillImage" />
        <dc:title></dc:title>
      </cc:Work>
    </rdf:RDF>
  </metadata>
  <g
     inkscape:label="Layer 1"
     inkscape:groupmode="layer"
     id="layer1">
    <path
       style="fill:#000000;fill-opacity:1;fill-rule:nonzero;stroke:none;stroke-width:1.50397"
       id="path14"
       d="m -8.0070906,211.81648 c 4.429491,0.4077 8.87019797,0.52196 13.3106252,0.57252 4.4580125,-0.0792 8.9113114,-0.41955 13.3100514,-1.31147 6.556869,-1.54314 12.558806,-5.36292 18.621946,-8.60269 3.349715,-1.94953 6.10621,-4.99426 8.873816,-7.92716 3.584676,-3.70447 6.629262,-8.02277 9.302139,-12.69562 2.592855,-4.33204 5.108054,-8.72376 7.743503,-13.02076 1.884073,-2.95389 3.381051,-6.19329 4.87926,-9.43842 1.371921,-3.09987 2.61438,-6.27728 3.793274,-9.48975 1.164807,-3.09917 1.894212,-6.37629 2.607781,-9.6547 1.124425,-4.75744 3.054263,-2.92441 -9.471896,3.48962 -0.07551,0.0375 -0.157269,1.83061 -0.216226,2.46382 -0.286197,2.98595 -0.617953,5.96537 -0.929542,8.94775 -0.752052,3.8295 -1.235911,7.7217 -1.7658,11.60216 -0.480481,3.78462 -0.876744,7.57393 -1.588163,11.30642 -0.51588,2.96207 -0.99086,5.92638 -1.60561,8.86048 -0.633509,2.75372 -1.011539,5.57232 -1.370419,8.39224 -0.143564,2.35333 -0.788771,4.57171 -1.242485,6.84725 -0.700272,2.33544 -1.160537,4.75127 -1.57322,7.17955 -0.388516,2.33968 -0.820641,3.70913 1.039513,5.16625 1.749675,0.78929 3.571804,0.27096 5.278462,-0.42204 4.025203,-1.64672 7.827622,-3.85368 11.739566,-5.93318 0.702686,-0.37398 1.379453,-0.89548 1.947272,-1.50762 1.325511,-1.32123 2.610951,-2.74381 3.819487,-4.22586 1.852917,-2.02643 3.416738,-3.94776 4.887395,-6.40431 2.282711,-3.77174 4.383045,-7.72519 6.218013,-11.83758 2.104519,-4.64782 3.909547,-9.47551 5.50576,-14.40565 1.408778,-4.00071 2.792451,-8.00572 4.103475,-12.05475 1.071873,-3.20855 1.757343,-6.56419 2.323403,-9.94655 0.31211,-1.78041 0.44819,-3.59602 0.71811,-5.38447 0.0102,-0.0375 0.0561,-0.13411 0.0207,-0.11855 -11.433677,5.76682 -9.397598,1.38396 -9.693835,9.35652 -0.231127,4.32004 -0.664767,8.62075 -1.123563,12.91295 -0.400677,3.82612 -0.831842,7.64746 -1.276504,11.46649 -0.324085,2.95713 -0.617197,5.91914 -0.936128,8.87709 -0.276617,2.55949 -0.563517,5.11738 -0.850416,7.67531 -0.302564,2.20877 -0.447825,4.41926 -0.46881,6.65454 0.138793,2.18366 0.282281,4.31374 1.043157,6.3214 0.803854,2.2123 2.285741,3.57297 4.06338,4.52664 1.540211,0.74376 3.139881,1.07808 4.791063,0.9754 5.589736,-1.33439 10.632366,-4.68928 14.963836,-8.95532 1.83894,-2.03145 3.44392,-4.33792 5.16025,-6.5142 2.2536,-2.83014 3.88328,-6.26752 5.52502,-9.62867 2.05817,-4.06629 3.61244,-8.44074 5.11541,-12.83189 1.38826,-3.88957 2.82357,-7.74937 4.26564,-11.61041 1.37078,-3.22521 2.59338,-6.50944 3.42387,-9.99526 0.69377,-3.50162 1.17896,-7.05368 1.62048,-10.61185 0.0513,-0.42204 0.10001,-0.84385 0.14992,-1.2657 0.0513,-0.42204 0.13373,-1.06424 0.20747,-1.51593 0.0102,-0.075 0.10104,-0.251 0.0461,-0.22352 -9.95335,4.57023 -9.42442,0.49696 -9.83568,5.46563 -0.24935,2.74686 -0.54534,5.48716 -0.8134,8.23146 -0.1353,3.43958 -1.03258,6.66242 -1.82851,9.93196 -0.86406,3.16349 -1.89372,6.24392 -2.61732,9.46052 -0.65395,3.10675 -1.06238,6.28427 -1.42032,9.45799 -0.57569,3.31313 -1.12694,6.63193 -1.64142,9.95991 -0.40327,2.6383 -0.67832,5.29931 -0.96499,7.9582 -0.39033,2.63461 -0.10014,5.29394 0.35206,7.8841 0.42511,2.21326 1.60521,3.88065 3.06365,5.23246 1.62947,1.36116 3.50745,1.31876 5.36998,0.86018 8.04981,-2.59327 10.98537,-3.98277 15.16454,-10.58332 2.30156,-4.72693 4.06435,-9.81859 5.75384,-14.89931 1.89241,-5.04926 3.19338,-10.33577 4.19215,-15.73016 0.89317,-5.21465 1.45102,-10.50008 2.06618,-15.76956 0.28884,-3.56 0.9504,-7.08307 1.07812,-10.65917 -0.0306,-2.78438 -0.7121,-5.38965 -1.59815,-7.92467 -0.72531,-1.90079 -1.56745,-3.75785 -2.90947,-5.11426 -1.54557,-1.13971 -3.39133,-1.39475 -5.15032,-1.7113 -4.71942,-0.98512 -10.43563,0.20916 -13.49972,5.35474 -0.74564,1.53999 -1.41433,3.273 -1.11643,5.07825 0.1769,0.24598 0.30116,0.56628 0.52994,0.73827 1.03299,0.77497 4.00152,-0.55565 5.0619,-0.94311 1.89374,-0.80731 3.81029,-1.51843 5.72053,-2.26363 1.97229,-0.83855 4.06224,-1.17949 6.13963,-1.35206 2.21103,0.0181 4.3903,-0.43266 6.59269,-0.58625 2.67247,-0.0762 5.33711,0.24973 7.98867,0.61248 2.03314,0.26971 4.0597,0.56377 6.05621,1.10517 2.00356,0.58189 3.85413,1.66979 5.69131,2.76287 1.61856,0.88936 3.16769,1.95227 4.71678,3.00433 1.85457,1.3674 3.84147,2.43425 5.75023,3.68159 1.72412,1.28033 3.57843,2.16705 5.52776,2.78909 1.92367,0.46947 3.86574,0.87286 5.82339,1.05854 1.85736,0.13178 3.68601,-0.0499 5.4789,-0.64381 0.98485,-0.39269 1.93454,-0.89597 2.89948,-1.35242 0,0 8.69003,-6.41778 8.69003,-6.41778 v 0 c -0.97247,0.41142 -1.93652,0.8465 -2.85541,1.4157 -0.59264,0.22914 -1.16475,0.54755 -1.77299,0.70596 -1.15276,0.30091 -2.36676,0.22848 -3.53652,0.28343 -1.92371,0.0125 -3.82591,-0.48509 -5.7204,-0.84502 -1.91486,-0.5026 -3.76154,-1.2227 -5.44635,-2.46586 -1.87277,-1.28617 -3.85999,-2.30346 -5.68423,-3.69296 -1.5418,-1.11926 -3.15445,-2.1374 -4.77708,-3.0696 -1.89957,-1.10573 -3.76843,-2.29933 -5.81105,-2.99177 -2.02044,-0.61934 -4.05004,-1.01772 -6.13225,-1.22767 -2.68305,-0.35088 -5.36981,-0.69714 -8.07053,-0.76082 -2.21222,0.0313 -4.36692,0.54128 -6.57416,0.5494 -2.10845,0.0868 -4.22035,0.36337 -6.26198,1.02178 -0.87941,0.41642 -1.74535,0.68663 -2.64987,1.00336 -1.68047,0.58875 -0.28854,0.1548 -1.96493,0.89923 -0.3744,0.16666 -0.76174,0.28907 -1.14246,0.43329 -1.04907,0.43391 -2.12373,0.8866 -3.20783,1.18054 -0.28758,0.0775 -0.59356,0.0562 -0.87413,0.16426 -0.40809,0.15925 -0.43418,0.31403 -0.61127,0.66709 -0.16069,-1.42392 0.65986,-2.9112 1.40768,-3.91604 3.23949,-2.39593 0.73825,-0.49947 -8.39803,3.98327 -0.18979,0.0936 0.37175,-0.21974 0.57256,-0.27034 0.83764,-0.21037 1.67609,0.14625 2.50756,0.20418 1.63826,0.26533 3.31435,0.48634 4.86913,1.19585 1.34529,1.02595 2.07471,2.79842 2.75869,4.47948 0.83943,2.35516 1.4649,4.80603 1.4393,7.4018 -0.17357,3.51773 -0.6474,7.00566 -0.96696,10.50639 -0.53448,5.23658 -1.12615,10.47169 -2.03122,15.63666 -1.02452,5.33625 -2.40505,10.52882 -4.23887,15.54791 -1.67889,5.01769 -3.41812,10.09634 -5.93655,14.59602 -1.01178,1.441 -1.99829,2.87022 -3.31022,3.93626 -0.31938,0.25972 -1.36285,0.85777 -1.0039,0.68964 11.41483,-5.34689 11.03299,-5.16777 7.51648,-3.81666 -1.59797,0.65012 -3.35123,1.06812 -4.91772,0.075 -1.3595,-1.04757 -2.39731,-2.4478 -2.77246,-4.38887 -0.46018,-2.46335 -0.65492,-4.96109 -0.2701,-7.46835 0.28993,-2.63705 0.60082,-5.27189 0.96205,-7.89606 0.47758,-3.35041 1.07144,-6.66991 1.62711,-10.00189 0.3776,-3.11953 0.74111,-6.25022 1.44368,-9.29402 0.773,-3.19069 1.80911,-6.27108 2.62211,-9.44717 0.8133,-3.31961 1.58428,-6.63449 1.76818,-10.1122 0.31352,-2.76165 0.60177,-5.5278 0.95034,-8.28353 0.66257,-4.79185 0.34593,-1.06855 -9.54934,2.92755 -0.0102,0.005 -0.0575,1.16411 -0.10384,1.64642 -0.0408,0.4164 -0.0866,0.83179 -0.12922,1.2477 -0.38679,3.49938 -0.81851,7.00535 -1.61254,10.40977 -0.9036,3.40815 -2.16082,6.62783 -3.45213,9.84511 -1.41745,3.85356 -2.82477,7.70997 -4.16266,11.60504 -1.50449,4.36781 -3.16778,8.65238 -5.22511,12.68841 -1.66696,3.30847 -3.34782,6.65175 -5.64436,9.39381 -1.69687,2.17029 -3.32898,4.43373 -5.22579,6.35827 -1.00706,0.94138 -2.01483,1.82719 -3.111984,2.61233 -0.335476,0.23975 -1.380394,0.86453 -1.016597,0.69607 2.615771,-1.21094 11.797551,-5.7073 7.783191,-3.8282 -1.52745,0.53318 -3.06228,0.19033 -4.55913,-0.36586 -1.62516,-0.68701 -3.033488,-1.67103 -3.713742,-3.69317 -0.710206,-1.82284 -0.784833,-3.80002 -0.917286,-5.78664 0.03776,-2.19828 0.292155,-4.35938 0.532977,-6.53654 0.254356,-2.54846 0.509198,-5.09691 0.774053,-7.64379 0.311074,-2.96195 0.648655,-5.92002 0.952406,-8.88315 0.367102,-3.80659 0.749202,-7.61095 1.140992,-11.41393 0.43033,-4.35176 0.92734,-8.69597 1.25099,-13.06152 0.37572,-7.81636 0.81574,-4.98148 -9.584948,-0.81121 -0.08751,1.7608 -0.373811,3.50044 -0.60254,5.23944 -0.529889,3.30908 -1.232913,6.57139 -2.281913,9.70301 -1.292424,4.02843 -2.711497,7.99198 -4.016372,12.01429 -1.613659,4.89793 -3.44802,9.6713 -5.582014,14.27422 -1.890586,4.06257 -3.973241,8.00896 -6.34031,11.69451 -1.518973,2.27874 -3.268306,4.25467 -5.024363,6.26483 -1.258538,1.41605 -2.502312,2.86955 -3.90679,4.07625 -0.533352,0.37459 -3.400605,2.02793 -1.963092,1.33918 15.369534,-7.36389 10.245072,-5.00381 6.888077,-3.49973 -1.583634,0.61933 -3.138333,1.4475 -4.852681,1.23453 -0.225283,-0.0786 -0.608938,-0.15107 -0.792254,-0.3952 -0.450255,-0.59872 0.204632,-2.56623 0.214881,-3.247 0.4176,-2.42184 0.972259,-4.79235 1.613372,-7.14196 0.493936,-2.28441 0.977515,-4.56565 1.150182,-6.9268 0.364189,-2.78582 0.805897,-5.55659 1.401276,-8.28542 0.612452,-2.94209 1.02873,-5.92893 1.579202,-8.8882 0.654228,-3.74472 0.961655,-7.5507 1.467401,-11.32663 0.522629,-3.91842 1.206656,-7.79195 1.85163,-11.68146 0.328636,-2.99459 0.643732,-5.99176 1.0067,-8.98067 0.0796,-0.6593 0.165408,-1.31759 0.238274,-1.97801 0.02536,-0.21227 0.232736,-0.69442 0.06205,-0.63742 -10.481488,3.49811 -9.086326,-0.08 -9.862122,4.83761 -0.579562,3.22516 -1.403376,6.37845 -2.545106,9.38265 -1.226945,3.17049 -2.461568,6.33696 -3.853284,9.4088 -1.474207,3.18962 -3.015293,6.32519 -4.825846,9.2603 -2.593341,4.30223 -5.058863,8.70895 -7.653845,13.00908 -2.749813,4.56585 -5.804837,8.83114 -9.423661,12.43975 -2.790208,2.90053 -5.629259,5.80413 -9.033259,7.61265 -4.064847,2.25675 -1.574168,0.84279 6.147142,-2.94185 0.522245,-0.25596 -1.034135,0.54254 -1.559336,0.78966 -1.04153,0.49009 -2.094167,0.92168 -3.176588,1.26095 -0.532737,0.16666 -1.074048,0.29157 -1.611038,0.43766 -4.368572,1.09783 -8.840077,1.44088 -13.294878,1.56799 -4.335226,-0.0124 -8.6775757,-0.0562 -12.99301763,-0.61682 0,0 -8.97781997,5.93194 -8.97781997,5.93194 z" />
  </g>
</svg>
